<svg xmlns="http://www.w3.org/2000/svg" version="1.1" xmlns:xlink="http://www.w3.org/1999/xlink" xmlns:svgjs="http://svgjs.dev/svgjs" viewBox="0 0 2400 800" opacity="1"><defs><linearGradient x1="50%" y1="0%" x2="50%" y2="100%" id="sssurf-grad"><stop stop-color="#FCEBB1" stop-opacity="1" offset="0%"></stop><stop stop-color="#624E04" stop-opacity="1" offset="100%"></stop></linearGradient></defs><g fill="url(#sssurf-grad)" transform="matrix(1,0,0,1,0,-550.3794555664062)"><path d="M 0 329.91545927256743 Q 183.77127018476278 450 400 308.1115115351502 Q 639.0575451259929 450 800 300.75889730941816 Q 1064.1291928958965 450 1200 321.2768513741282 Q 1481.0822585655565 450 1600 336.8831500987706 Q 1705.80362196705 450 2000 324.6539874816329 Q 2187.498674114176 450 2400 337.48538732416836 L 2400 800 L 0 800 L 0 341.22537050188265 Z" transform="matrix(1,0,0,1,0,120)" opacity="0.05"></path><path d="M 0 329.91545927256743 Q 183.77127018476278 450 400 308.1115115351502 Q 639.0575451259929 450 800 300.75889730941816 Q 1064.1291928958965 450 1200 321.2768513741282 Q 1481.0822585655565 450 1600 336.8831500987706 Q 1705.80362196705 450 2000 324.6539874816329 Q 2187.498674114176 450 2400 337.48538732416836 L 2400 800 L 0 800 L 0 341.22537050188265 Z" transform="matrix(1,0,0,1,0,240)" opacity="0.17"></path><path d="M 0 329.91545927256743 Q 183.77127018476278 450 400 308.1115115351502 Q 639.0575451259929 450 800 300.75889730941816 Q 1064.1291928958965 450 1200 321.2768513741282 Q 1481.0822585655565 450 1600 336.8831500987706 Q 1705.80362196705 450 2000 324.6539874816329 Q 2187.498674114176 450 2400 337.48538732416836 L 2400 800 L 0 800 L 0 341.22537050188265 Z" transform="matrix(1,0,0,1,0,360)" opacity="0.29"></path><path d="M 0 329.91545927256743 Q 183.77127018476278 450 400 308.1115115351502 Q 639.0575451259929 450 800 300.75889730941816 Q 1064.1291928958965 450 1200 321.2768513741282 Q 1481.0822585655565 450 1600 336.8831500987706 Q 1705.80362196705 450 2000 324.6539874816329 Q 2187.498674114176 450 2400 337.48538732416836 L 2400 800 L 0 800 L 0 341.22537050188265 Z" transform="matrix(1,0,0,1,0,480)" opacity="0.41"></path><path d="M 0 329.91545927256743 Q 183.77127018476278 450 400 308.1115115351502 Q 639.0575451259929 450 800 300.75889730941816 Q 1064.1291928958965 450 1200 321.2768513741282 Q 1481.0822585655565 450 1600 336.8831500987706 Q 1705.80362196705 450 2000 324.6539874816329 Q 2187.498674114176 450 2400 337.48538732416836 L 2400 800 L 0 800 L 0 341.22537050188265 Z" transform="matrix(1,0,0,1,0,600)" opacity="0.53"></path><path d="M 0 329.91545927256743 Q 183.77127018476278 450 400 308.1115115351502 Q 639.0575451259929 450 800 300.75889730941816 Q 1064.1291928958965 450 1200 321.2768513741282 Q 1481.0822585655565 450 1600 336.8831500987706 Q 1705.80362196705 450 2000 324.6539874816329 Q 2187.498674114176 450 2400 337.48538732416836 L 2400 800 L 0 800 L 0 341.22537050188265 Z" transform="matrix(1,0,0,1,0,720)" opacity="0.64"></path><path d="M 0 329.91545927256743 Q 183.77127018476278 450 400 308.1115115351502 Q 639.0575451259929 450 800 300.75889730941816 Q 1064.1291928958965 450 1200 321.2768513741282 Q 1481.0822585655565 450 1600 336.8831500987706 Q 1705.80362196705 450 2000 324.6539874816329 Q 2187.498674114176 450 2400 337.48538732416836 L 2400 800 L 0 800 L 0 341.22537050188265 Z" transform="matrix(1,0,0,1,0,840)" opacity="0.76"></path><path d="M 0 329.91545927256743 Q 183.77127018476278 450 400 308.1115115351502 Q 639.0575451259929 450 800 300.75889730941816 Q 1064.1291928958965 450 1200 321.2768513741282 Q 1481.0822585655565 450 1600 336.8831500987706 Q 1705.80362196705 450 2000 324.6539874816329 Q 2187.498674114176 450 2400 337.48538732416836 L 2400 800 L 0 800 L 0 341.22537050188265 Z" transform="matrix(1,0,0,1,0,960)" opacity="0.88"></path><path d="M 0 329.91545927256743 Q 183.77127018476278 450 400 308.1115115351502 Q 639.0575451259929 450 800 300.75889730941816 Q 1064.1291928958965 450 1200 321.2768513741282 Q 1481.0822585655565 450 1600 336.8831500987706 Q 1705.80362196705 450 2000 324.6539874816329 Q 2187.498674114176 450 2400 337.48538732416836 L 2400 800 L 0 800 L 0 341.22537050188265 Z" transform="matrix(1,0,0,1,0,1080)" opacity="1.00"></path></g></svg>